<svg width="43" height="34" viewBox="0 0 43 34" fill="none" xmlns="http://www.w3.org/2000/svg">
<g id="Union" filter="url(#filter0_d_15_48)">
<path fill-rule="evenodd" clip-rule="evenodd" d="M28.5 3H26.5C25.3954 3 24.5 3.89543 24.5 5V12C24.5 13.1046 25.3954 14 26.5 14H28.5C29.6046 14 30.5 13.1046 30.5 12V5C30.5 4.55424 30.3542 4.14254 30.1076 3.81001C30.1027 3.80377 30.0979 3.79743 30.0933 3.79098C29.7281 3.31034 29.1503 3 28.5 3ZM31.5 5C31.5 4.80779 31.4819 4.61979 31.4474 4.43763C33.2151 5.26827 34.7584 6.44409 36.0081 7.86571L33.0528 13.7764C32.9293 14.0234 33.0294 14.3237 33.2764 14.4472C33.5234 14.5707 33.8237 14.4706 33.9472 14.2236L36.7001 8.71784C38.4776 11.0906 39.5 14.0205 39.5 17.1242V18H15V16.9403C15 13.7105 16.145 10.6874 18.101 8.31996L21.0528 14.2236C21.1763 14.4706 21.4766 14.5707 21.7236 14.4472C21.9706 14.3237 22.0707 14.0234 21.9472 13.7764L18.9472 7.77639C18.9043 7.69047 18.8399 7.62233 18.7638 7.57518C20.0914 6.18966 21.7207 5.07833 23.5705 4.35027C23.5244 4.55948 23.5 4.7769 23.5 5V12C23.5 13.6569 24.8431 15 26.5 15H28.5C30.1569 15 31.5 13.6569 31.5 12V5ZM14.0101 18.1007C14.0035 18.0682 14 18.0345 14 18V16.9403C14 10.5754 18.1407 4.95798 24.2055 3.06722C24.7558 2.41459 25.5795 2 26.5 2H28.5C29.4267 2 30.2553 2.42019 30.8056 3.08044C36.6361 5.29076 40.5 10.8789 40.5 17.1242V18C40.5 18.0037 40.5 18.0075 40.4999 18.0112C41.9016 18.1374 43 19.3154 43 20.75C43 22.2688 41.7688 23.5 40.25 23.5H36V22.5H40.25C41.2165 22.5 42 21.7165 42 20.75C42 19.7835 41.2165 19 40.25 19H14.75C13.7835 19 13 19.7835 13 20.75C13 21.7165 13.7835 22.5 14.75 22.5H27.5H29V23.5H27.5H14.75C13.2312 23.5 12 22.2688 12 20.75C12 19.4875 12.8507 18.4238 14.0101 18.1007ZM33.875 22.5H31V23.5H33.875V22.5Z" fill="url(#paint0_linear_15_48)"/>
</g>
<defs>
<filter id="filter0_d_15_48" x="0" y="0" width="43" height="33.5" filterUnits="userSpaceOnUse" color-interpolation-filters="sRGB">
<feFlood flood-opacity="0" result="BackgroundImageFix"/>
<feColorMatrix in="SourceAlpha" type="matrix" values="0 0 0 0 0 0 0 0 0 0 0 0 0 0 0 0 0 0 127 0" result="hardAlpha"/>
<feOffset dx="-6" dy="4"/>
<feGaussianBlur stdDeviation="3"/>
<feComposite in2="hardAlpha" operator="out"/>
<feColorMatrix type="matrix" values="0 0 0 0 0.956863 0 0 0 0 0.729412 0 0 0 0 0.254902 0 0 0 0.5 0"/>
<feBlend mode="normal" in2="BackgroundImageFix" result="effect1_dropShadow_15_48"/>
<feBlend mode="normal" in="SourceGraphic" in2="effect1_dropShadow_15_48" result="shape"/>
</filter>
<linearGradient id="paint0_linear_15_48" x1="27.5" y1="4.38889" x2="27.5" y2="23.5" gradientUnits="userSpaceOnUse">
<stop stop-color="#F6DD74"/>
<stop offset="1" stop-color="#F3AC3C"/>
</linearGradient>
</defs>
</svg>
