<svg width="40" height="38" viewBox="0 0 40 38" fill="none" xmlns="http://www.w3.org/2000/svg">
<g id="Union" filter="url(#filter0_d_15_47)">
<path fill-rule="evenodd" clip-rule="evenodd" d="M25.1345 0.000774044C25.2706 -0.00680194 25.4038 0.0414888 25.5034 0.134473L33.0034 7.13447C33.2053 7.32289 33.2162 7.63928 33.0278 7.84116C32.8394 8.04304 32.523 8.05395 32.3211 7.86553L25.2025 1.22143L19.8584 7.45619C19.935 7.52902 20.0223 7.61265 20.1191 7.70597C20.4796 8.05336 20.9793 8.54164 21.5704 9.12324C21.6192 9.17125 21.6686 9.2199 21.7186 9.26917C21.7416 9.22499 21.7716 9.18353 21.8087 9.14645L24.3087 6.64645C24.504 6.45119 24.8206 6.45119 25.0158 6.64645C25.2111 6.84171 25.2111 7.15829 25.0158 7.35355L22.5158 9.85355C22.4804 9.88897 22.441 9.91796 22.3991 9.94053C22.888 10.4237 23.4159 10.9469 23.9638 11.4913L25.3087 10.1464C25.504 9.95119 25.8206 9.95119 26.0158 10.1464C26.2111 10.3417 26.2111 10.6583 26.0158 10.8536L24.6729 12.1965C25.0219 12.544 25.3755 12.8965 25.7293 13.2497C25.7507 13.2128 25.7772 13.178 25.8087 13.1464L28.3087 10.6464C28.504 10.4512 28.8206 10.4512 29.0158 10.6464C29.2111 10.8417 29.2111 11.1583 29.0158 11.3536L26.5158 13.8536C26.4844 13.885 26.4498 13.9114 26.413 13.9327C26.942 14.4617 27.4648 14.9856 27.966 15.4892L29.8087 13.6464C30.004 13.4512 30.3206 13.4512 30.5158 13.6464C30.7111 13.8417 30.7111 14.1583 30.5158 14.3536L28.6711 16.1983C29.0416 16.5716 29.3947 16.9281 29.7231 17.2607C29.7455 17.2197 29.774 17.1811 29.8087 17.1464L32.3087 14.6464C32.504 14.4512 32.8206 14.4512 33.0158 14.6464C33.2111 14.8417 33.2111 15.1583 33.0158 15.3536L30.5158 17.8536C30.4793 17.8901 30.4384 17.9199 30.3949 17.9427C30.8367 18.3927 31.2096 18.7755 31.4872 19.0652C31.5758 19.1576 31.6554 19.2413 31.7248 19.315L37.9568 14.4185L36.2719 12.3123C36.0993 12.0967 36.1343 11.7821 36.3499 11.6096C36.5656 11.4371 36.8802 11.472 37.0527 11.6877L39.0527 14.1877C39.136 14.2918 39.1743 14.4249 39.159 14.5574C39.1437 14.6899 39.0761 14.8108 38.9712 14.8932L32.1959 20.2166C32.2499 20.7435 32.199 21.1932 32.0417 21.5661C31.8501 22.0206 31.5194 22.3153 31.1384 22.4827C30.6763 22.6858 30.151 22.6992 29.6901 22.6347L27.8939 24.1743C26.902 25.0245 25.4228 24.9677 24.4991 24.0439L24.1002 23.645C23.5516 23.0965 22.6753 23.0567 22.0793 23.5534L15.9614 28.6516C14.9292 29.5118 13.4016 29.4022 12.5027 28.4034L10.6418 26.3358C9.71171 25.3023 9.80345 23.7086 10.846 22.7888L16.4465 17.8471C17.033 17.3296 17.1234 16.4482 16.6541 15.8224L15.803 14.6877C15.0566 13.6924 15.1555 12.2996 16.0353 11.4199L17.15 10.3051C16.9811 10.1021 16.8444 9.92453 16.7462 9.77731C16.4366 9.31291 16.3277 8.83387 16.423 8.38134C16.5163 7.93799 16.7907 7.59116 17.1123 7.34996C17.4334 7.10913 17.8248 6.95434 18.2131 6.89609C18.4692 6.85768 18.7417 6.85887 19.0029 6.91763L24.7827 0.174605C24.8713 0.0711357 24.9984 0.00834956 25.1345 0.000774044ZM18.8752 7.92001C18.7437 7.87219 18.5661 7.85433 18.3614 7.88503C18.1247 7.92054 17.8912 8.01576 17.7123 8.14995C17.5339 8.28376 17.4332 8.43694 17.4015 8.58735C17.3718 8.72856 17.3879 8.93702 17.5783 9.2226C17.8426 9.61904 18.5173 10.3683 19.4718 11.3585C20.4134 12.3353 21.5916 13.5108 22.8313 14.745L23.1115 15.0239C25.4488 17.3504 27.9619 19.8519 29.4374 21.5533C29.6344 21.4539 29.88 21.4948 30.0334 21.665C30.2908 21.6802 30.5396 21.6535 30.7361 21.5672C30.9052 21.4929 31.037 21.3752 31.1203 21.1775C31.2004 20.9878 31.2492 20.6907 31.1918 20.2366L18.8752 7.92001ZM28.6686 22.1932C27.2173 20.5219 24.7328 18.0488 22.3838 15.7105L22.3838 15.7105L22.1258 15.4537C20.8876 14.221 19.7018 13.0381 18.7518 12.0525C18.4092 11.6971 18.0923 11.3624 17.8124 11.057L16.7424 12.127C16.2145 12.6549 16.1552 13.4905 16.603 14.0877L17.4541 15.2224C18.2363 16.2654 18.0857 17.7344 17.1081 18.597L11.5076 23.5386C10.8821 24.0905 10.827 25.0467 11.3851 25.6668L13.246 27.7345C13.7853 28.3337 14.7019 28.3995 15.3212 27.8834L21.4391 22.7851C22.4324 21.9574 23.893 22.0236 24.8073 22.9379L25.2062 23.3368C25.7605 23.8911 26.648 23.9252 27.2431 23.4151L28.6686 22.1932ZM34.0158 8.64645C33.8206 8.45119 33.504 8.45119 33.3087 8.64645C33.1135 8.84171 33.1135 9.15829 33.3087 9.35355L35.3087 11.3536C35.504 11.5488 35.8206 11.5488 36.0158 11.3536C36.2111 11.1583 36.2111 10.8417 36.0158 10.6464L34.0158 8.64645ZM14.6623 25C14.9384 25 15.1623 24.7761 15.1623 24.5C15.1623 24.2239 14.9384 24 14.6623 24C14.3861 24 14.1623 24.2239 14.1623 24.5C14.1623 24.7761 14.3861 25 14.6623 25ZM14.6623 26C15.4907 26 16.1623 25.3284 16.1623 24.5C16.1623 23.6716 15.4907 23 14.6623 23C13.8339 23 13.1623 23.6716 13.1623 24.5C13.1623 25.3284 13.8339 26 14.6623 26Z" fill="url(#paint0_linear_15_47)"/>
</g>
<defs>
<filter id="filter0_d_15_47" x="0" y="0" width="39.1623" height="37.2311" filterUnits="userSpaceOnUse" color-interpolation-filters="sRGB">
<feFlood flood-opacity="0" result="BackgroundImageFix"/>
<feColorMatrix in="SourceAlpha" type="matrix" values="0 0 0 0 0 0 0 0 0 0 0 0 0 0 0 0 0 0 127 0" result="hardAlpha"/>
<feOffset dx="-6" dy="4"/>
<feGaussianBlur stdDeviation="2"/>
<feComposite in2="hardAlpha" operator="out"/>
<feColorMatrix type="matrix" values="0 0 0 0 0.956863 0 0 0 0 0.729412 0 0 0 0 0.254902 0 0 0 0.5 0"/>
<feBlend mode="normal" in2="BackgroundImageFix" result="effect1_dropShadow_15_47"/>
<feBlend mode="normal" in="SourceGraphic" in2="effect1_dropShadow_15_47" result="shape"/>
</filter>
<linearGradient id="paint0_linear_15_47" x1="24.5811" y1="0" x2="24.5811" y2="29.2311" gradientUnits="userSpaceOnUse">
<stop stop-color="#F6DD74"/>
<stop offset="1" stop-color="#E49339"/>
</linearGradient>
</defs>
</svg>
