<svg width="20" height="16" viewBox="0 0 20 16" fill="none" xmlns="http://www.w3.org/2000/svg">
<path id="Vector 38" d="M3.63923 10.2111H5.73838L0.899066 4.9685C0.396817 4.4244 0.413681 3.58083 0.937277 3.05723C1.47604 2.51847 2.34955 2.51847 2.88831 3.05723L6.85418 7.0231C6.85418 4.95091 8.92637 5.26971 9.08577 5.26971C8.44818 2.84683 10.4141 2.66619 11.4768 2.87872C11.0942 0.965928 12.5926 0.564392 13.7084 1.44413C16.4713 3.62259 20.4031 7.66073 18.8091 11.3269C16.966 15.5661 14.1866 14.8337 12.4332 14.9931C11.2184 15.1035 6.4091 13.867 3.24416 12.9815C2.50235 12.774 2.07136 12.0075 2.26984 11.2632C2.43528 10.6428 2.99715 10.2111 3.63923 10.2111Z" stroke="black" stroke-width="0.5"/>
</svg>
