<svg width="42" height="42" viewBox="0 0 42 42" fill="none" xmlns="http://www.w3.org/2000/svg">
<g id="Union" filter="url(#filter0_d_15_49)">
<path fill-rule="evenodd" clip-rule="evenodd" d="M12 17C12 8.99187 18.4919 2.5 26.5 2.5C34.5081 2.5 41 8.99187 41 17C41 19.3329 40.4495 21.5357 39.4716 23.487L40.3657 23.935C41.4116 21.8478 42 19.4919 42 17C42 8.43959 35.0604 1.5 26.5 1.5C17.9396 1.5 11 8.43959 11 17C11 25.5604 17.9396 32.5 26.5 32.5C29.5384 32.5 32.3741 31.6252 34.767 30.1136L34.233 29.2682C31.9951 30.6818 29.3439 31.5 26.5 31.5C18.4919 31.5 12 25.0081 12 17ZM38.1003 25.7011C37.5779 26.3963 36.9946 27.0431 36.3581 27.6334L37.0382 28.3666C37.7182 27.7358 38.3416 27.0447 38.8997 26.3018L38.1003 25.7011ZM32.0731 12.5543C32.5835 12.0758 33.3816 12.0887 33.8763 12.5834C34.3825 13.0896 34.3825 13.9104 33.8763 14.4166L25.3296 22.9633C25.1391 23.1538 24.8319 23.1591 24.6349 22.9753L19.2013 17.904C18.632 17.3726 18.5766 16.4891 19.0752 15.8908C19.6083 15.251 20.5662 15.1823 21.1852 15.7394L23.9827 18.2572C24.5619 18.7784 25.4437 18.7694 26.0121 18.2365L32.0731 12.5543ZM31.3892 11.8248C32.2933 10.9771 33.707 10.9999 34.5834 11.8763C35.4801 12.773 35.4801 14.227 34.5834 15.1237L26.0367 23.6704C25.4651 24.242 24.5435 24.2579 23.9526 23.7063L18.519 18.635C17.5619 17.7417 17.4688 16.2564 18.307 15.2506C19.2032 14.1751 20.8136 14.0596 21.8542 14.9961L24.6517 17.5139C24.8448 17.6876 25.1387 17.6846 25.3282 17.507L31.3892 11.8248Z" fill="url(#paint0_linear_15_49)"/>
</g>
<defs>
<filter id="filter0_d_15_49" x="0" y="0.5" width="42" height="41" filterUnits="userSpaceOnUse" color-interpolation-filters="sRGB">
<feFlood flood-opacity="0" result="BackgroundImageFix"/>
<feColorMatrix in="SourceAlpha" type="matrix" values="0 0 0 0 0 0 0 0 0 0 0 0 0 0 0 0 0 0 127 0" result="hardAlpha"/>
<feOffset dx="-6" dy="4"/>
<feGaussianBlur stdDeviation="2.5"/>
<feComposite in2="hardAlpha" operator="out"/>
<feColorMatrix type="matrix" values="0 0 0 0 0.956863 0 0 0 0 0.729412 0 0 0 0 0.254902 0 0 0 0.5 0"/>
<feBlend mode="normal" in2="BackgroundImageFix" result="effect1_dropShadow_15_49"/>
<feBlend mode="normal" in="SourceGraphic" in2="effect1_dropShadow_15_49" result="shape"/>
</filter>
<linearGradient id="paint0_linear_15_49" x1="26.5" y1="1.5" x2="26.5" y2="32.5" gradientUnits="userSpaceOnUse">
<stop stop-color="#F6DD74"/>
<stop offset="1" stop-color="#C5533A"/>
</linearGradient>
</defs>
</svg>
