<svg width="17" height="19" viewBox="0 0 17 19" fill="none" xmlns="http://www.w3.org/2000/svg">
<path id="Subtract" fill-rule="evenodd" clip-rule="evenodd" d="M8.72111 18.7167C10.207 17.9571 16.5078 14.378 16.5078 8.30317C16.5078 3.76438 12.8822 0.0849609 8.40987 0.0849609C3.93751 0.0849609 0.311951 3.76438 0.311951 8.30317C0.311951 14.378 6.6127 17.9571 8.09863 18.7167C8.29689 18.8181 8.52285 18.8181 8.72111 18.7167ZM8.40989 11.8252C10.3266 11.8252 11.8804 10.2483 11.8804 8.30312C11.8804 6.35792 10.3266 4.78103 8.40989 4.78103C6.49317 4.78103 4.93935 6.35792 4.93935 8.30312C4.93935 10.2483 6.49317 11.8252 8.40989 11.8252Z" fill="#85B73E"/>
</svg>
