<svg width="15" height="18" viewBox="0 0 15 18" fill="none" xmlns="http://www.w3.org/2000/svg">
<path id="Subtract" fill-rule="evenodd" clip-rule="evenodd" d="M8.12633 17.195C9.42914 16.529 14.9534 13.3909 14.9534 8.06478C14.9534 4.08534 11.7746 0.859375 7.85345 0.859375C3.93226 0.859375 0.75351 4.08534 0.75351 8.06478C0.75351 13.3909 6.27776 16.529 7.58056 17.195C7.75439 17.2838 7.9525 17.2838 8.12633 17.195ZM7.85349 11.1527C9.534 11.1527 10.8963 9.77015 10.8963 8.06468C10.8963 6.35921 9.534 4.97665 7.85349 4.97665C6.17298 4.97665 4.81066 6.35921 4.81066 8.06468C4.81066 9.77015 6.17298 11.1527 7.85349 11.1527Z" fill="#F5B940"/>
</svg>
