<svg width="15" height="15" viewBox="0 0 15 15" fill="none" xmlns="http://www.w3.org/2000/svg">
<g id="Group 5">
<path id="google" fill-rule="evenodd" clip-rule="evenodd" d="M14.299 7.61423C14.299 7.11151 14.2539 6.62812 14.1701 6.16406H7.49287V8.9065H11.3084C11.1441 9.79271 10.6446 10.5436 9.89371 11.0463V12.8252H12.185C13.5256 11.5909 14.299 9.77338 14.299 7.61423Z" fill="#4285F4"/>
<path id="google_2" fill-rule="evenodd" clip-rule="evenodd" d="M7.49261 14.543C9.40683 14.543 11.0117 13.9081 12.1847 12.8253L9.89345 11.0464C9.25859 11.4718 8.4465 11.7232 7.49261 11.7232C5.64605 11.7232 4.08309 10.476 3.52558 8.80029H1.15697V10.6372C2.32355 12.9542 4.72117 14.543 7.49261 14.543Z" fill="#34A853"/>
<path id="google_3" fill-rule="evenodd" clip-rule="evenodd" d="M3.52587 8.80051C3.38408 8.37513 3.30351 7.92074 3.30351 7.45346C3.30351 6.98619 3.38408 6.5318 3.52587 6.10642V4.26953H1.15726C0.677089 5.22664 0.403168 6.30944 0.403168 7.45346C0.403168 8.59749 0.677089 9.68028 1.15726 10.6374L3.52587 8.80051Z" fill="#FBBC05"/>
<path id="google_4" fill-rule="evenodd" clip-rule="evenodd" d="M7.49261 3.18355C8.53351 3.18355 9.46806 3.54126 10.2028 4.24378L12.2363 2.21032C11.0085 1.0663 9.40361 0.36377 7.49261 0.36377C4.72117 0.36377 2.32355 1.95251 1.15697 4.26957L3.52558 6.10645C4.08309 4.4307 5.64605 3.18355 7.49261 3.18355Z" fill="#EA4335"/>
</g>
</svg>
