<svg width="126" height="13" viewBox="0 0 126 13" fill="none" xmlns="http://www.w3.org/2000/svg">
<g id="HOUSE WORLD">
<path d="M0.597708 12.6338C0.483863 12.6338 0.426941 12.5769 0.426941 12.4631C0.426941 12.4175 0.438325 12.3264 0.461094 12.1898C0.495248 12.0532 0.535094 11.9451 0.580632 11.8654C1.00186 11.8426 1.29216 11.7288 1.45155 11.5238C1.62231 11.3075 1.7077 10.966 1.7077 10.4992V2.72931C1.7077 2.36501 1.68493 2.10886 1.63939 1.96086C1.59385 1.80147 1.49139 1.69901 1.33201 1.65348C1.18401 1.60794 0.944936 1.57378 0.614785 1.55102C0.614785 1.40302 0.62617 1.2664 0.648939 1.14117C0.671708 1.00456 0.688785 0.907791 0.700169 0.850869C0.734323 0.737024 0.796937 0.680101 0.888013 0.680101H4.43998C4.55382 0.680101 4.61075 0.737024 4.61075 0.850869C4.61075 0.896407 4.59367 0.987483 4.55952 1.1241C4.53675 1.26071 4.50259 1.36886 4.45706 1.44856C4.00168 1.45994 3.70568 1.5624 3.56906 1.75594C3.43245 1.93809 3.36414 2.26255 3.36414 2.72931V5.87144H9.44347V2.72931C9.44347 2.37639 9.4207 2.12024 9.37516 1.96086C9.32962 1.80147 9.22716 1.69901 9.06778 1.65348C8.91978 1.60794 8.68071 1.57378 8.35056 1.55102C8.35056 1.40302 8.36194 1.2664 8.38471 1.14117C8.40748 1.00456 8.42456 0.907791 8.43594 0.850869C8.47009 0.737024 8.53271 0.680101 8.62378 0.680101H12.1245C12.2384 0.680101 12.2953 0.737024 12.2953 0.850869C12.2953 0.896407 12.2782 0.987483 12.2441 1.1241C12.2213 1.26071 12.1871 1.36886 12.1416 1.44856C11.7204 1.45994 11.4414 1.5624 11.3048 1.75594C11.1682 1.93809 11.0999 2.26255 11.0999 2.72931V10.4992C11.0999 11.0002 11.1227 11.3246 11.1682 11.4726C11.2138 11.6206 11.3219 11.706 11.4927 11.7288C11.561 11.7401 11.6691 11.7515 11.8171 11.7629C11.9651 11.7629 12.0961 11.7629 12.2099 11.7629C12.2099 12.0703 12.1871 12.3037 12.1416 12.4631C12.1074 12.5769 12.0448 12.6338 11.9538 12.6338H8.29933C8.18548 12.6338 8.12856 12.5769 8.12856 12.4631C8.12856 12.4175 8.13994 12.3264 8.16271 12.1898C8.19687 12.0532 8.23671 11.9451 8.28225 11.8654C8.70347 11.8426 8.99947 11.7288 9.17024 11.5238C9.35239 11.3075 9.44347 10.966 9.44347 10.4992V6.98142H3.36414V10.4992C3.36414 11.0002 3.38691 11.3246 3.43245 11.4726C3.47799 11.6206 3.58614 11.706 3.75691 11.7288C3.84798 11.7401 3.96752 11.7515 4.11552 11.7629C4.2749 11.7629 4.41152 11.7629 4.52536 11.7629C4.52536 12.0703 4.50259 12.3037 4.45706 12.4631C4.4229 12.5769 4.36029 12.6338 4.26921 12.6338H0.597708Z" fill="#E5E5E6"/>
<path d="M19.3821 12.89C18.5511 12.89 17.7769 12.7477 17.0597 12.4631C16.3539 12.1671 15.7334 11.7515 15.1983 11.2165C14.6633 10.6814 14.242 10.0495 13.9347 9.32094C13.6387 8.59233 13.4907 7.79542 13.4907 6.93019C13.4907 5.98528 13.6557 5.12006 13.9859 4.33453C14.3274 3.53761 14.7942 2.84885 15.3862 2.26824C15.9896 1.67625 16.6897 1.22087 17.4866 0.902099C18.2835 0.583333 19.1374 0.42395 20.0481 0.42395C20.9134 0.42395 21.7046 0.577641 22.4218 0.885023C23.1504 1.18102 23.7766 1.59655 24.3002 2.13163C24.8239 2.6667 25.2281 3.29854 25.5127 4.02714C25.8087 4.74437 25.9567 5.5299 25.9567 6.38374C25.9567 7.31727 25.7916 8.18249 25.4615 8.97941C25.1427 9.77632 24.6873 10.4651 24.0953 11.0457C23.5147 11.6263 22.8203 12.0817 22.012 12.4118C21.215 12.7306 20.3384 12.89 19.3821 12.89ZM19.8261 11.8483C20.7027 11.8483 21.4712 11.6377 22.1315 11.2165C22.7918 10.7952 23.3041 10.2089 23.6684 9.45755C24.0327 8.70618 24.2149 7.84095 24.2149 6.86189C24.2149 5.80313 24.0213 4.8696 23.6343 4.0613C23.2586 3.253 22.7235 2.62116 22.029 2.16578C21.3346 1.69901 20.5206 1.46563 19.5871 1.46563C18.7674 1.46563 18.0274 1.68194 17.3671 2.11455C16.7182 2.53578 16.2002 3.12208 15.8131 3.87345C15.426 4.62483 15.2325 5.48436 15.2325 6.45204C15.2325 7.52219 15.4317 8.46141 15.8302 9.26971C16.24 10.078 16.7922 10.7098 17.4866 11.1652C18.1811 11.6206 18.9609 11.8483 19.8261 11.8483Z" fill="#E5E5E6"/>
<path d="M26.974 1.55102C26.974 1.40302 26.9853 1.2664 27.0081 1.14117C27.0309 1.00456 27.048 0.907791 27.0593 0.850869C27.0935 0.737024 27.1561 0.680101 27.2472 0.680101H30.8845C30.9984 0.680101 31.0553 0.737024 31.0553 0.850869C31.0553 0.896407 31.0382 0.987483 31.0041 1.1241C30.9813 1.26071 30.9471 1.36886 30.9016 1.44856C30.4462 1.45994 30.1332 1.5624 29.9624 1.75594C29.803 1.93809 29.7233 2.26255 29.7233 2.72931V8.36464C29.7233 9.46894 29.9965 10.3285 30.543 10.9432C31.1008 11.558 31.8636 11.8654 32.8313 11.8654C33.947 11.8654 34.7951 11.558 35.3757 10.9432C35.9677 10.3171 36.2637 9.45755 36.2637 8.36464V2.72931C36.2637 2.36501 36.2296 2.10316 36.1613 1.94378C36.1043 1.7844 35.9791 1.68194 35.7856 1.6364C35.6034 1.59086 35.3245 1.5624 34.9488 1.55102C34.9488 1.40302 34.9602 1.2664 34.983 1.14117C35.0057 1.00456 35.0228 0.907791 35.0342 0.850869C35.0683 0.737024 35.131 0.680101 35.222 0.680101H38.4154C38.5292 0.680101 38.5862 0.737024 38.5862 0.850869C38.5862 0.896407 38.5691 0.987483 38.5349 1.1241C38.5121 1.26071 38.478 1.36886 38.4325 1.44856C38.0112 1.45994 37.7152 1.5624 37.5445 1.75594C37.3851 1.93809 37.3054 2.26824 37.3054 2.74639V8.36464C37.3054 9.25263 37.1289 10.0382 36.776 10.7212C36.4231 11.4043 35.8994 11.9394 35.205 12.3264C34.5105 12.7021 33.6567 12.89 32.6434 12.89C31.1976 12.89 30.0705 12.5257 29.2622 11.7971C28.4653 11.0571 28.0669 9.91293 28.0669 8.36464V2.72931C28.0669 2.35362 28.0441 2.08609 27.9986 1.9267C27.953 1.76732 27.8506 1.67055 27.6912 1.6364C27.5432 1.59086 27.3041 1.5624 26.974 1.55102Z" fill="#E5E5E6"/>
<path d="M43.5147 12.89C42.991 12.89 42.4673 12.8217 41.9436 12.6851C41.4199 12.5484 40.9532 12.3777 40.5433 12.1728C40.1335 11.9678 39.8375 11.7572 39.6553 11.5409L39.5187 8.80864C39.6098 8.78587 39.7293 8.76879 39.8773 8.75741C40.0253 8.73464 40.1335 8.72325 40.2018 8.72325C40.3042 8.72325 40.3725 8.74602 40.4067 8.79156C40.4522 8.8371 40.4807 8.89971 40.4921 8.97941L40.8507 10.6188C41.2036 10.9945 41.6305 11.3018 42.1314 11.5409C42.6437 11.78 43.1617 11.8995 43.6854 11.8995C44.4254 11.8995 45.006 11.7003 45.4273 11.3018C45.8485 10.9034 46.0591 10.3626 46.0591 9.67955C46.0591 9.08756 45.9054 8.6151 45.598 8.26218C45.2906 7.89788 44.9036 7.60188 44.4368 7.37419C43.97 7.1465 43.4862 6.94158 42.9853 6.75943C41.8468 6.3382 41.0385 5.87144 40.5604 5.35913C40.0822 4.84683 39.8489 4.22637 39.8602 3.49777C39.8716 2.80331 40.0652 2.22839 40.4408 1.77301C40.8165 1.31763 41.3061 0.98179 41.9095 0.765485C42.5128 0.537795 43.1561 0.42395 43.8391 0.42395C44.7385 0.42395 45.5866 0.623179 46.3836 1.02164L46.8788 1.05579C46.9926 1.06717 47.0609 1.13548 47.0837 1.26071L47.152 3.70269C47.0609 3.72546 46.9528 3.74823 46.8276 3.77099C46.7137 3.78238 46.6283 3.78807 46.5714 3.78807C46.4462 3.78807 46.3665 3.71976 46.3323 3.58315L45.9737 2.42193C45.8029 2.09178 45.5297 1.81855 45.154 1.60225C44.7783 1.38594 44.3059 1.27779 43.7367 1.27779C43.3496 1.27779 42.9739 1.3404 42.6096 1.46563C42.2567 1.57948 41.9664 1.76163 41.7387 2.01209C41.5224 2.26255 41.4085 2.59839 41.3971 3.01962C41.3971 3.475 41.511 3.85638 41.7387 4.16376C41.9664 4.47114 42.2681 4.72729 42.6437 4.93221C43.0194 5.13714 43.4122 5.31929 43.822 5.47867C44.2774 5.64944 44.7328 5.84867 45.1882 6.07636C45.6436 6.29266 46.0591 6.54881 46.4348 6.84481C46.8219 7.14081 47.1292 7.49373 47.3569 7.90357C47.596 8.30203 47.7155 8.77448 47.7155 9.32094C47.7155 10.0495 47.5277 10.6814 47.152 11.2165C46.7877 11.7515 46.2868 12.1671 45.6493 12.4631C45.0117 12.7477 44.3002 12.89 43.5147 12.89Z" fill="#E5E5E6"/>
<path d="M56.8503 12.6509L48.9096 12.6338C48.7957 12.6338 48.7388 12.5769 48.7388 12.4631C48.7388 12.4175 48.7502 12.3264 48.773 12.1898C48.8071 12.0532 48.847 11.9451 48.8925 11.8654C49.3137 11.8312 49.604 11.7117 49.7634 11.5068C49.9342 11.3018 50.0196 10.966 50.0196 10.4992V2.72931C50.0196 2.34224 49.9968 2.06901 49.9513 1.90963C49.9057 1.75024 49.8033 1.65348 49.6439 1.61932C49.4959 1.57378 49.2568 1.55102 48.9267 1.55102C48.9267 1.40302 48.938 1.2664 48.9608 1.14117C48.9836 1.00456 49.0007 0.907791 49.012 0.850869C49.0462 0.737024 49.1088 0.680101 49.1999 0.680101H56.6283C56.7535 0.680101 56.8389 0.708563 56.8844 0.765485C56.93 0.811023 56.9584 0.896407 56.9698 1.02164L57.1064 3.13915C57.0381 3.17331 56.9357 3.20177 56.799 3.22454C56.6624 3.24731 56.5657 3.25869 56.5087 3.25869C56.3607 3.25869 56.2754 3.19608 56.2526 3.07085L56.116 2.35362C56.0704 2.0804 56.0021 1.90394 55.9111 1.82424C55.82 1.74455 55.6378 1.70471 55.3646 1.70471L52.7006 1.67055C52.3705 1.65917 52.1314 1.68194 51.9834 1.73886C51.8468 1.7844 51.7614 1.88686 51.7272 2.04624C51.6931 2.19424 51.676 2.42762 51.676 2.74639V5.78605H53.9472C54.414 5.78605 54.7157 5.72913 54.8523 5.61528C55.0003 5.50144 55.08 5.27944 55.0914 4.94929C55.1711 4.90375 55.2735 4.87529 55.3988 4.86391C55.5354 4.84114 55.6264 4.82975 55.672 4.82975C55.7858 4.82975 55.8427 4.88668 55.8427 5.00052L55.7744 7.85234C55.7744 7.94341 55.7175 8.00603 55.6037 8.04018C55.5467 8.05157 55.4557 8.06864 55.3304 8.09141C55.2052 8.11418 55.08 8.12557 54.9548 8.12557C54.9548 7.72711 54.932 7.43111 54.8864 7.23758C54.8523 7.04404 54.7612 6.91881 54.6132 6.86189C54.4766 6.79358 54.2546 6.75943 53.9472 6.75943H51.676V10.4822C51.676 10.9945 51.7443 11.3246 51.8809 11.4726C52.0176 11.6092 52.2282 11.6718 52.5128 11.6605L55.4671 11.5921C55.7972 11.5808 56.0477 11.5295 56.2184 11.4385C56.4006 11.3474 56.5315 11.1766 56.6112 10.9262L56.8844 10.1406C56.9414 10.0154 57.0267 9.95278 57.1406 9.95278C57.1975 9.95278 57.2886 9.96986 57.4138 10.004C57.539 10.0382 57.6358 10.0723 57.7041 10.1065L57.3284 12.2411C57.2715 12.5143 57.1121 12.6509 56.8503 12.6509Z" fill="#E5E5E6"/>
<path d="M74.1129 12.89L71.7392 5.5299L69.5022 12.4289C69.4111 12.7363 69.2403 12.89 68.9898 12.89H68.3751L65.1817 3.20746C64.8857 2.28532 64.5442 1.76732 64.1571 1.65348C64.0547 1.61932 63.9465 1.59655 63.8327 1.58517C63.7302 1.57378 63.5936 1.5624 63.4228 1.55102C63.4228 1.24363 63.4456 1.01025 63.4911 0.850869C63.5253 0.737024 63.5879 0.680101 63.679 0.680101H67.3676C67.4814 0.680101 67.5383 0.737024 67.5383 0.850869C67.5383 0.896407 67.5212 0.987483 67.4871 1.1241C67.4643 1.26071 67.4302 1.36886 67.3846 1.44856C67.0886 1.45994 66.878 1.51117 66.7528 1.60225C66.6389 1.68194 66.582 1.81286 66.582 1.99501C66.582 2.10886 66.6048 2.25116 66.6503 2.42193C66.6959 2.58131 66.7528 2.76916 66.8211 2.98546L69.1094 10.0723C69.1321 10.1179 69.1663 10.1406 69.2118 10.1406C69.2574 10.1406 69.2858 10.1179 69.2972 10.0723L71.2611 4.07838L70.9878 3.20746C70.8398 2.7407 70.6804 2.38208 70.5097 2.13163C70.3389 1.88117 70.1568 1.72178 69.9632 1.65348C69.8608 1.61932 69.7526 1.59655 69.6388 1.58517C69.5363 1.57378 69.3997 1.5624 69.2289 1.55102C69.2289 1.24363 69.2517 1.01025 69.2972 0.850869C69.3314 0.737024 69.394 0.680101 69.4851 0.680101H73.1737C73.242 0.680101 73.2704 0.714255 73.259 0.782562C73.259 0.816715 73.259 0.839484 73.259 0.850869C73.259 0.862253 73.259 0.873638 73.259 0.885023C73.259 0.95333 73.2533 1.0501 73.242 1.17533C73.242 1.28917 73.2249 1.38025 73.1907 1.44856C72.8947 1.45994 72.6898 1.51117 72.576 1.60225C72.4621 1.68194 72.4052 1.80717 72.4052 1.97793C72.4052 2.09178 72.4223 2.23409 72.4564 2.40485C72.502 2.57562 72.5589 2.76916 72.6272 2.98546L74.8472 10.0723C74.8699 10.1179 74.9041 10.1406 74.9496 10.1406C74.9952 10.1406 75.0236 10.1179 75.035 10.0723L77.1013 2.84885C77.1582 2.6667 77.1981 2.51301 77.2208 2.38778C77.255 2.25116 77.2721 2.13732 77.2721 2.04624C77.2721 1.85271 77.2038 1.72748 77.0672 1.67055C76.9305 1.60225 76.6972 1.5624 76.367 1.55102C76.367 1.40302 76.3784 1.2664 76.4012 1.14117C76.4353 1.00456 76.4581 0.907791 76.4695 0.850869C76.5036 0.737024 76.5662 0.680101 76.6573 0.680101H79.5604C79.6742 0.680101 79.7311 0.737024 79.7311 0.850869C79.7311 0.896407 79.7141 0.987483 79.6799 1.1241C79.6571 1.26071 79.623 1.36886 79.5774 1.44856C79.2131 1.49409 78.9342 1.59655 78.7407 1.75594C78.5471 1.91532 78.3707 2.26255 78.2113 2.79762L75.2399 12.4289C75.1489 12.7363 74.9781 12.89 74.7276 12.89H74.1129Z" fill="#E5E5E6"/>
<path d="M85.8714 12.89C85.0403 12.89 84.2662 12.7477 83.549 12.4631C82.8431 12.1671 82.2227 11.7515 81.6876 11.2165C81.1525 10.6814 80.7313 10.0495 80.4239 9.32094C80.1279 8.59233 79.9799 7.79542 79.9799 6.93019C79.9799 5.98528 80.145 5.12006 80.4752 4.33453C80.8167 3.53761 81.2835 2.84885 81.8755 2.26824C82.4788 1.67625 83.179 1.22087 83.9759 0.902099C84.7728 0.583333 85.6267 0.42395 86.5374 0.42395C87.4026 0.42395 88.1939 0.577641 88.9111 0.885023C89.6397 1.18102 90.2658 1.59655 90.7895 2.13163C91.3132 2.6667 91.7174 3.29854 92.002 4.02714C92.298 4.74437 92.446 5.5299 92.446 6.38374C92.446 7.31727 92.2809 8.18249 91.9507 8.97941C91.632 9.77632 91.1766 10.4651 90.5846 11.0457C90.004 11.6263 89.3095 12.0817 88.5012 12.4118C87.7043 12.7306 86.8277 12.89 85.8714 12.89ZM86.3154 11.8483C87.192 11.8483 87.9605 11.6377 88.6208 11.2165C89.2811 10.7952 89.7934 10.2089 90.1577 9.45755C90.522 8.70618 90.7041 7.84095 90.7041 6.86189C90.7041 5.80313 90.5106 4.8696 90.1235 4.0613C89.7478 3.253 89.2128 2.62116 88.5183 2.16578C87.8239 1.69901 87.0099 1.46563 86.0763 1.46563C85.2567 1.46563 84.5167 1.68194 83.8564 2.11455C83.2074 2.53578 82.6894 3.12208 82.3024 3.87345C81.9153 4.62483 81.7218 5.48436 81.7218 6.45204C81.7218 7.52219 81.921 8.46141 82.3195 9.26971C82.7293 10.078 83.2814 10.7098 83.9759 11.1652C84.6704 11.6206 85.4502 11.8483 86.3154 11.8483Z" fill="#E5E5E6"/>
<path d="M93.7194 12.6338C93.6055 12.6338 93.5486 12.5769 93.5486 12.4631C93.5486 12.4175 93.56 12.3264 93.5828 12.1898C93.6169 12.0532 93.6568 11.9451 93.7023 11.8654C94.1235 11.8426 94.4138 11.7288 94.5732 11.5238C94.744 11.3075 94.8294 10.966 94.8294 10.4992V2.72931C94.8294 2.34224 94.8066 2.06901 94.7611 1.90963C94.7155 1.75024 94.6131 1.65348 94.4537 1.61932C94.3057 1.57378 94.0666 1.55102 93.7365 1.55102C93.7365 1.40302 93.7479 1.2664 93.7706 1.14117C93.7934 1.00456 93.8105 0.907791 93.8219 0.850869C93.856 0.737024 93.9186 0.680101 94.0097 0.680101H98.1423C99.497 0.680101 100.55 0.947637 101.301 1.48271C102.053 2.0064 102.429 2.75777 102.429 3.73684C102.429 4.55652 102.178 5.25098 101.677 5.8202C101.188 6.38943 100.55 6.82773 99.7646 7.13512C100.413 8.12557 100.949 8.92817 101.37 9.54294C101.791 10.1577 102.15 10.6302 102.446 10.9603C102.742 11.2791 103.009 11.4954 103.248 11.6092C103.499 11.7231 103.766 11.78 104.051 11.78C104.074 11.9166 104.062 12.076 104.017 12.2581C103.983 12.4289 103.937 12.5541 103.88 12.6338C103.482 12.7932 103.072 12.8729 102.651 12.8729C102.286 12.8729 101.973 12.7818 101.711 12.5997C101.449 12.4175 101.131 12.0532 100.755 11.5068L98.2447 7.5108C97.8349 7.56773 97.4193 7.59619 96.9981 7.59619C96.8274 7.59619 96.6566 7.5905 96.4858 7.57911V10.4992C96.4858 11.0002 96.5086 11.3246 96.5541 11.4726C96.5997 11.6206 96.7078 11.706 96.8786 11.7288C96.9697 11.7401 97.0892 11.7515 97.2372 11.7629C97.3966 11.7629 97.5332 11.7629 97.647 11.7629C97.647 12.0703 97.6243 12.3037 97.5787 12.4631C97.5446 12.5769 97.482 12.6338 97.3909 12.6338H93.7194ZM96.4858 6.50328C96.9071 6.58297 97.3112 6.62281 97.6983 6.62281C98.7456 6.62281 99.5084 6.39512 99.9866 5.93974C100.476 5.48436 100.721 4.80698 100.721 3.90761C100.721 3.14485 100.482 2.56424 100.004 2.16578C99.5255 1.75594 98.8424 1.55102 97.9544 1.55102C97.556 1.55102 97.2144 1.57948 96.9298 1.6364C96.7477 1.68194 96.6281 1.79578 96.5712 1.97793C96.5143 2.16009 96.4858 2.41055 96.4858 2.72931V6.50328Z" fill="#E5E5E6"/>
<path d="M112.532 12.6509L104.643 12.6338C104.529 12.6338 104.472 12.5769 104.472 12.4631C104.472 12.4175 104.483 12.3264 104.506 12.1898C104.54 12.0532 104.58 11.9451 104.625 11.8654C105.047 11.8312 105.337 11.7117 105.496 11.5068C105.667 11.3018 105.752 10.966 105.752 10.4992V2.72931C105.752 2.34224 105.73 2.06901 105.684 1.90963C105.639 1.75024 105.536 1.65348 105.377 1.61932C105.229 1.57378 104.99 1.55102 104.66 1.55102C104.66 1.40302 104.671 1.2664 104.694 1.14117C104.717 1.00456 104.734 0.907791 104.745 0.850869C104.779 0.737024 104.842 0.680101 104.933 0.680101H108.656C108.769 0.680101 108.826 0.737024 108.826 0.850869C108.826 0.896407 108.809 0.987483 108.775 1.1241C108.752 1.26071 108.718 1.36886 108.673 1.44856C108.172 1.45994 107.836 1.5624 107.665 1.75594C107.494 1.93809 107.409 2.26255 107.409 2.72931V10.4992C107.409 11.0115 107.477 11.3303 107.614 11.4555C107.75 11.5808 107.961 11.6377 108.246 11.6263L111.132 11.558C111.462 11.5466 111.707 11.4726 111.866 11.336C112.037 11.1994 112.173 11.0058 112.276 10.7554L112.617 9.90155C112.674 9.77632 112.76 9.71371 112.874 9.71371C112.93 9.71371 113.022 9.73078 113.147 9.76494C113.272 9.7877 113.369 9.81617 113.437 9.85032L113.01 12.2411C112.953 12.5143 112.794 12.6509 112.532 12.6509Z" fill="#E5E5E6"/>
<path d="M114.211 12.4801C114.211 12.4232 114.222 12.3264 114.245 12.1898C114.279 12.0532 114.319 11.9451 114.365 11.8654C114.786 11.8426 115.076 11.7288 115.235 11.5238C115.406 11.3075 115.492 10.966 115.492 10.4992V2.72931C115.492 2.35362 115.469 2.08609 115.423 1.9267C115.378 1.75594 115.275 1.65348 115.116 1.61932C114.968 1.57378 114.729 1.55102 114.399 1.55102C114.399 1.40302 114.41 1.2664 114.433 1.14117C114.456 1.00456 114.473 0.907791 114.484 0.850869C114.507 0.759792 114.541 0.708562 114.587 0.697178C114.632 0.685793 114.661 0.680101 114.672 0.680101H118.634C120.831 0.680101 122.522 1.15825 123.706 2.11455C124.889 3.05946 125.481 4.47683 125.481 6.36666C125.481 7.63034 125.185 8.74033 124.593 9.69663C124.002 10.6529 123.136 11.3929 121.998 11.9166C120.859 12.4289 119.47 12.668 117.831 12.6338H114.382C114.268 12.6338 114.211 12.5826 114.211 12.4801ZM117.148 10.4992C117.148 10.7725 117.165 10.9945 117.199 11.1652C117.245 11.336 117.359 11.4612 117.541 11.5409C117.723 11.6092 118.036 11.6434 118.48 11.6434C119.539 11.6434 120.467 11.4498 121.264 11.0628C122.06 10.6757 122.675 10.0894 123.108 9.30386C123.552 8.51833 123.774 7.53357 123.774 6.34958C123.774 5.18836 123.563 4.26622 123.142 3.58315C122.721 2.90008 122.134 2.41055 121.383 2.11455C120.643 1.81855 119.778 1.67055 118.787 1.67055H118.087C117.757 1.67055 117.518 1.75024 117.37 1.90963C117.222 2.06901 117.148 2.34224 117.148 2.72931V10.4992Z" fill="#E5E5E6"/>
</g>
</svg>
