<svg width="38" height="38" viewBox="0 0 38 38" fill="none" xmlns="http://www.w3.org/2000/svg">
<g id="Group 61">
<circle id="Ellipse 41" cx="19.421" cy="18.5829" r="18.5829" fill="#F5B940"/>
<path id="Union" fill-rule="evenodd" clip-rule="evenodd" d="M15.3046 13.1504L15.2725 13.1504C14.4732 13.1504 13.8289 13.1504 13.3221 13.2185C12.796 13.2892 12.353 13.4406 12.0012 13.7924C11.6494 14.1442 11.498 14.5872 11.4273 15.1133C11.3592 15.6201 11.3592 16.2644 11.3592 17.0637L11.3592 17.0958V20.6029L11.3592 20.6349C11.3592 21.4343 11.3592 22.0786 11.4273 22.5854C11.498 23.1115 11.6494 23.5545 12.0012 23.9063C12.353 24.2581 12.796 24.4094 13.3221 24.4802C13.8289 24.5483 14.4732 24.5483 15.2725 24.5483H15.3046H22.3187H22.3508C23.1501 24.5483 23.7945 24.5483 24.3012 24.4802C24.8273 24.4094 25.2703 24.2581 25.6221 23.9063C25.974 23.5545 26.1253 23.1115 26.196 22.5854C26.2641 22.0786 26.2641 21.4343 26.2641 20.6349V20.6029V17.0958V17.0637C26.2641 16.2644 26.2641 15.6201 26.196 15.1133C26.1253 14.5872 25.974 14.1442 25.6221 13.7924C25.2703 13.4406 24.8273 13.2892 24.3012 13.2185C23.7945 13.1504 23.1501 13.1504 22.3508 13.1504L22.3187 13.1504H15.3046ZM12.6211 14.4123C12.7829 14.2506 13.01 14.1451 13.4389 14.0874C13.8804 14.0281 14.4656 14.0272 15.3046 14.0272H22.3187C23.1577 14.0272 23.7429 14.0281 24.1844 14.0874C24.6133 14.1451 24.8404 14.2506 25.0022 14.4123C25.1639 14.5741 25.2694 14.8012 25.3271 15.2301C25.3548 15.4362 25.3697 15.6735 25.3778 15.9532L19.3998 18.9423C19.0296 19.1274 18.5938 19.1274 18.2235 18.9423L12.2455 15.9532C12.2536 15.6735 12.2685 15.4362 12.2962 15.2301C12.3539 14.8012 12.4594 14.5741 12.6211 14.4123ZM12.236 16.9287C12.236 16.9833 12.236 17.039 12.236 17.0958V20.6029C12.236 21.4419 12.2369 22.027 12.2962 22.4685C12.3539 22.8974 12.4594 23.1246 12.6211 23.2863C12.7829 23.4481 13.01 23.5536 13.4389 23.6112C13.8804 23.6706 14.4656 23.6715 15.3046 23.6715H22.3187C23.1577 23.6715 23.7429 23.6706 24.1844 23.6112C24.6133 23.5536 24.8404 23.4481 25.0022 23.2863C25.1639 23.1246 25.2694 22.8974 25.3271 22.4685C25.3864 22.027 25.3874 21.4419 25.3874 20.6029V17.0958C25.3874 17.039 25.3874 16.9833 25.3873 16.9287L19.7919 19.7265C19.1748 20.035 18.4485 20.035 17.8314 19.7265L12.236 16.9287Z" fill="white"/>
</g>
</svg>
