<svg width="60" height="35" viewBox="0 0 60 35" fill="none" xmlns="http://www.w3.org/2000/svg">
<path id="Union" fill-rule="evenodd" clip-rule="evenodd" d="M28.2474 1.26111C29.4948 0.0581003 31.4706 0.0580989 32.718 1.26111L44.9512 13.0591V5.10919C44.9512 4.75352 45.2395 4.46519 45.5952 4.46519C45.9509 4.46519 46.2392 4.75352 46.2392 5.10919V14.0393C46.2392 14.1179 46.2251 14.1932 46.1994 14.2628L53.8562 21.6472C54.1122 21.8941 54.1196 22.3018 53.8727 22.5578C53.6258 22.8138 53.2181 22.8212 52.9621 22.5743L31.8239 2.18821C31.0754 1.4664 29.89 1.4664 29.1415 2.18821L8.00333 22.5743L7.10922 21.6472L28.2474 1.26111ZM27.0481 11.721C26.811 11.721 26.6188 11.9132 26.6188 12.1503V14.5546C26.6188 14.7917 26.811 14.9839 27.0481 14.9839H29.4524C29.6895 14.9839 29.8817 14.7917 29.8817 14.5546V12.1503C29.8817 11.9132 29.6895 11.721 29.4524 11.721H27.0481ZM26.6188 16.2722C26.6188 16.0351 26.811 15.8428 27.0481 15.8428H29.4524C29.6895 15.8428 29.8817 16.0351 29.8817 16.2722V18.6764C29.8817 18.9136 29.6895 19.1058 29.4524 19.1058H27.0481C26.811 19.1058 26.6188 18.9136 26.6188 18.6764V16.2722ZM31.2555 11.721C31.0184 11.721 30.8262 11.9132 30.8262 12.1503V14.5546C30.8262 14.7917 31.0184 14.9839 31.2555 14.9839H33.6598C33.8969 14.9839 34.0891 14.7917 34.0891 14.5546V12.1503C34.0891 11.9132 33.8969 11.721 33.6598 11.721H31.2555ZM30.8262 16.2722C30.8262 16.0351 31.0184 15.8428 31.2555 15.8428H33.6598C33.8969 15.8428 34.0891 16.0351 34.0891 16.2722V18.6764C34.0891 18.9136 33.8969 19.1058 33.6598 19.1058H31.2555C31.0184 19.1058 30.8262 18.9136 30.8262 18.6764V16.2722ZM0.201694 34.0467C0.201694 34.1005 0.228586 34.1273 0.282372 34.1273H2.01694C2.05997 34.1273 2.08955 34.1005 2.10568 34.0467C2.1272 33.9714 2.13796 33.8611 2.13796 33.7159H1.94433C1.87441 33.7105 1.81793 33.7051 1.77491 33.6998C1.69423 33.689 1.64313 33.6487 1.62162 33.5787C1.60011 33.5088 1.58935 33.3555 1.58935 33.1189V31.4569H4.46147V33.1189C4.46147 33.3394 4.41844 33.5007 4.33239 33.6029C4.25171 33.6998 4.11187 33.7535 3.91286 33.7643C3.89135 33.8019 3.87252 33.853 3.85639 33.9176C3.84563 33.9821 3.84025 34.0252 3.84025 34.0467C3.84025 34.1005 3.86715 34.1273 3.92093 34.1273H5.64743C5.69046 34.1273 5.72004 34.1005 5.73618 34.0467C5.75769 33.9714 5.76845 33.8611 5.76845 33.7159H5.58289C5.51297 33.7105 5.46187 33.7051 5.4296 33.6998C5.34892 33.689 5.29783 33.6487 5.27631 33.5787C5.2548 33.5088 5.24404 33.3555 5.24404 33.1189V29.448C5.24404 29.2275 5.27631 29.0742 5.34086 28.9882C5.4054 28.8967 5.53717 28.8483 5.73618 28.843C5.75769 28.8053 5.77383 28.7542 5.78458 28.6897C5.80072 28.6251 5.80879 28.5821 5.80879 28.5606C5.80879 28.5068 5.78189 28.4799 5.72811 28.4799H4.07422C4.03119 28.4799 4.00161 28.5068 3.98547 28.5606C3.98009 28.5875 3.97203 28.6332 3.96127 28.6977C3.95051 28.7569 3.94513 28.8214 3.94513 28.8914C4.10111 28.9021 4.21406 28.9183 4.28398 28.9398C4.35928 28.9613 4.40769 29.0097 4.4292 29.085C4.45071 29.1603 4.46147 29.2813 4.46147 29.448V30.9325H1.58935V29.448C1.58935 29.2275 1.62162 29.0742 1.68616 28.9882C1.7507 28.8967 1.89054 28.8483 2.10568 28.843C2.1272 28.8053 2.14333 28.7542 2.15409 28.6897C2.17023 28.6251 2.17829 28.5821 2.17829 28.5606C2.17829 28.5068 2.1514 28.4799 2.09762 28.4799H0.419523C0.376495 28.4799 0.346914 28.5068 0.330778 28.5606C0.3254 28.5875 0.317332 28.6332 0.306575 28.6977C0.295818 28.7569 0.290439 28.8214 0.290439 28.8914C0.446416 28.9021 0.559365 28.9183 0.629285 28.9398C0.704584 28.9613 0.752991 29.0097 0.774505 29.085C0.796019 29.1549 0.806776 29.2759 0.806776 29.448V33.1189C0.806776 33.3394 0.766437 33.5007 0.685759 33.6029C0.61046 33.6998 0.473309 33.7535 0.274304 33.7643C0.25279 33.8019 0.233965 33.853 0.217829 33.9176C0.207072 33.9821 0.201694 34.0252 0.201694 34.0467ZM8.05969 34.0467C8.39854 34.1811 8.76428 34.2484 9.15691 34.2484C9.6087 34.2484 10.0228 34.1731 10.3993 34.0225C10.7812 33.8665 11.1093 33.6513 11.3836 33.377C11.6633 33.1027 11.8784 32.7773 12.029 32.4008C12.185 32.0243 12.263 31.6156 12.263 31.1745C12.263 30.7712 12.1931 30.4 12.0532 30.0612C11.9188 29.717 11.7278 29.4185 11.4804 29.1657C11.233 28.9129 10.9372 28.7166 10.593 28.5767C10.2541 28.4315 9.88031 28.3589 9.47155 28.3589C9.04127 28.3589 8.63788 28.4342 8.26138 28.5848C7.88489 28.7354 7.55411 28.9505 7.26905 29.2302C6.98937 29.5045 6.76885 29.8299 6.60749 30.2064C6.45152 30.5775 6.37353 30.9863 6.37353 31.4327C6.37353 31.8415 6.44345 32.218 6.58329 32.5622C6.72851 32.9064 6.92752 33.2049 7.18031 33.4577C7.43309 33.7105 7.72622 33.9068 8.05969 34.0467ZM10.4558 33.4577C10.1439 33.6567 9.78081 33.7562 9.36667 33.7562C8.9579 33.7562 8.58947 33.6487 8.26138 33.4335C7.9333 33.2184 7.67244 32.9199 7.47881 32.538C7.29056 32.1561 7.19644 31.7124 7.19644 31.2068C7.19644 30.7496 7.28788 30.3436 7.47074 29.9886C7.65361 29.6336 7.89834 29.3566 8.20491 29.1576C8.51686 28.9532 8.86647 28.851 9.25372 28.851C9.69476 28.851 10.0793 28.9613 10.4074 29.1818C10.7355 29.3969 10.9883 29.6955 11.1658 30.0773C11.3486 30.4592 11.4401 30.9002 11.4401 31.4004C11.4401 31.863 11.354 32.2718 11.1819 32.6267C11.0098 32.9817 10.7678 33.2587 10.4558 33.4577ZM12.7597 28.6977C12.749 28.7569 12.7436 28.8214 12.7436 28.8914C12.8996 28.8967 13.0125 28.9102 13.0824 28.9317C13.1577 28.9478 13.2061 28.9936 13.2277 29.0689C13.2492 29.1442 13.2599 29.2706 13.2599 29.448V32.1104C13.2599 32.8419 13.4482 33.3824 13.8247 33.732C14.2065 34.0762 14.739 34.2484 15.4221 34.2484C15.9008 34.2484 16.3042 34.1596 16.6323 33.9821C16.9603 33.7993 17.2078 33.5465 17.3745 33.2238C17.5412 32.901 17.6246 32.5299 17.6246 32.1104V29.4561C17.6246 29.2302 17.6622 29.0742 17.7375 28.9882C17.8182 28.8967 17.9581 28.8483 18.1571 28.843C18.1786 28.8053 18.1947 28.7542 18.2055 28.6897C18.2216 28.6251 18.2297 28.5821 18.2297 28.5606C18.2297 28.5068 18.2028 28.4799 18.149 28.4799H16.6403C16.5973 28.4799 16.5677 28.5068 16.5516 28.5606C16.5462 28.5875 16.5381 28.6332 16.5274 28.6977C16.5166 28.7569 16.5112 28.8214 16.5112 28.8914C16.6887 28.8967 16.8205 28.9102 16.9066 28.9317C16.998 28.9532 17.0572 29.0016 17.084 29.0769C17.1163 29.1522 17.1325 29.2759 17.1325 29.448V32.1104C17.1325 32.6267 16.9926 33.0328 16.7129 33.3286C16.4386 33.6191 16.0379 33.7643 15.5108 33.7643C15.0537 33.7643 14.6933 33.6191 14.4298 33.3286C14.1716 33.0382 14.0425 32.6321 14.0425 32.1104V29.448C14.0425 29.2275 14.0802 29.0742 14.1554 28.9882C14.2361 28.8967 14.384 28.8483 14.5992 28.843C14.6207 28.8053 14.6368 28.7542 14.6476 28.6897C14.6637 28.6251 14.6718 28.5821 14.6718 28.5606C14.6718 28.5068 14.6449 28.4799 14.5911 28.4799H12.8727C12.8296 28.4799 12.8001 28.5068 12.7839 28.5606C12.7786 28.5875 12.7705 28.6332 12.7597 28.6977ZM19.8159 34.1516C20.0633 34.2161 20.3107 34.2484 20.5581 34.2484C20.9292 34.2484 21.2654 34.1811 21.5666 34.0467C21.8678 33.9068 22.1044 33.7105 22.2765 33.4577C22.454 33.2049 22.5428 32.9064 22.5428 32.5622C22.5428 32.304 22.4863 32.0808 22.3733 31.8926C22.2658 31.6989 22.1206 31.5322 21.9377 31.3924C21.7602 31.2525 21.5639 31.1315 21.3487 31.0293C21.1336 30.9218 20.9185 30.8276 20.7033 30.747C20.5097 30.6717 20.3241 30.5856 20.1466 30.4888C19.9692 30.392 19.8266 30.271 19.7191 30.1257C19.6115 29.9805 19.5577 29.8003 19.5577 29.5852C19.5631 29.3862 19.6169 29.2275 19.7191 29.1092C19.8266 28.9909 19.9638 28.9048 20.1305 28.851C20.3026 28.7919 20.4801 28.7623 20.663 28.7623C20.9319 28.7623 21.1551 28.8134 21.3326 28.9156C21.5101 29.0178 21.6392 29.1468 21.7199 29.3028L21.8893 29.8514C21.9054 29.916 21.9431 29.9482 22.0022 29.9482C22.0291 29.9482 22.0695 29.9456 22.1232 29.9402C22.1824 29.9294 22.2335 29.9187 22.2765 29.9079L22.2443 28.7542C22.2335 28.6951 22.2012 28.6628 22.1474 28.6574L21.9135 28.6413C21.537 28.453 21.1363 28.3589 20.7114 28.3589C20.3887 28.3589 20.0848 28.4127 19.7997 28.5203C19.5147 28.6224 19.2834 28.7811 19.1059 28.9963C18.9284 29.2114 18.837 29.483 18.8316 29.8111C18.8262 30.1553 18.9365 30.4484 19.1624 30.6905C19.3883 30.9325 19.7701 31.153 20.308 31.352C20.5447 31.4381 20.7732 31.5349 20.9938 31.6425C21.2143 31.75 21.3971 31.8899 21.5424 32.062C21.6876 32.2287 21.7602 32.4519 21.7602 32.7316C21.7602 33.0543 21.6607 33.3098 21.4617 33.4981C21.2627 33.6863 20.9884 33.7804 20.6388 33.7804C20.3914 33.7804 20.1466 33.724 19.9046 33.611C19.668 33.4981 19.4663 33.3528 19.2995 33.1754L19.1301 32.4008C19.1247 32.3632 19.1113 32.3336 19.0898 32.3121C19.0736 32.2906 19.0414 32.2798 18.993 32.2798C18.9607 32.2798 18.9096 32.2852 18.8397 32.296C18.7697 32.3013 18.7133 32.3094 18.6702 32.3202L18.7348 33.611C18.8208 33.7132 18.9607 33.8127 19.1543 33.9095C19.3479 34.0063 19.5685 34.087 19.8159 34.1516ZM23.1069 34.1273L26.8584 34.1354C26.9821 34.1354 27.0574 34.0709 27.0843 33.9418L27.2618 32.9333C27.2295 32.9172 27.1838 32.901 27.1246 32.8849C27.0655 32.8688 27.0224 32.8607 26.9955 32.8607C26.9418 32.8607 26.9014 32.8903 26.8745 32.9495L26.7454 33.3206C26.7078 33.4389 26.6459 33.5196 26.5599 33.5626C26.4792 33.6056 26.3609 33.6298 26.2049 33.6352L24.8092 33.6675C24.6747 33.6729 24.5752 33.6433 24.5107 33.5787C24.4461 33.5088 24.4139 33.3528 24.4139 33.1108V31.352H25.4869C25.6321 31.352 25.737 31.3682 25.8015 31.4004C25.8714 31.4273 25.9145 31.4865 25.9306 31.5779C25.9521 31.6694 25.9629 31.8092 25.9629 31.9975C26.022 31.9975 26.0812 31.9921 26.1404 31.9813C26.1995 31.9706 26.2425 31.9625 26.2694 31.9571C26.3232 31.941 26.3501 31.9114 26.3501 31.8684L26.3824 30.5211C26.3824 30.4673 26.3555 30.4404 26.3017 30.4404C26.2802 30.4404 26.2372 30.4458 26.1726 30.4565C26.1135 30.4619 26.0651 30.4753 26.0274 30.4969C26.022 30.6528 25.9844 30.7577 25.9145 30.8115C25.8499 30.8653 25.7074 30.8922 25.4869 30.8922H24.4139V29.4561C24.4139 29.3055 24.4219 29.1953 24.4381 29.1253C24.4542 29.05 24.4945 29.0016 24.5591 28.9801C24.629 28.9532 24.7419 28.9425 24.8979 28.9478L26.1565 28.964C26.2856 28.964 26.3716 28.9828 26.4147 29.0205C26.4577 29.0581 26.49 29.1415 26.5115 29.2706L26.576 29.6094C26.5868 29.6686 26.6271 29.6981 26.697 29.6981C26.7239 29.6981 26.7696 29.6928 26.8342 29.682C26.8987 29.6713 26.9471 29.6578 26.9794 29.6417L26.9149 28.6413C26.9095 28.5821 26.896 28.5418 26.8745 28.5203C26.853 28.4934 26.8127 28.4799 26.7535 28.4799H23.244C23.201 28.4799 23.1714 28.5068 23.1553 28.5606C23.1499 28.5875 23.1418 28.6332 23.1311 28.6977C23.1203 28.7569 23.1149 28.8214 23.1149 28.8914C23.2709 28.8914 23.3839 28.9021 23.4538 28.9236C23.5291 28.9398 23.5775 28.9855 23.599 29.0608C23.6205 29.1361 23.6313 29.2652 23.6313 29.448V33.1189C23.6313 33.3394 23.5909 33.4981 23.5103 33.5949C23.435 33.6917 23.2978 33.7482 23.0988 33.7643C23.0773 33.8019 23.0585 33.853 23.0423 33.9176C23.0316 33.9821 23.0262 34.0252 23.0262 34.0467C23.0262 34.1005 23.0531 34.1273 23.1069 34.1273ZM33.8925 30.7712L35.0139 34.2484H35.3044C35.4227 34.2484 35.5034 34.1758 35.5464 34.0305L36.9502 29.4803C37.0255 29.2275 37.1089 29.0635 37.2003 28.9882C37.2917 28.9129 37.4235 28.8645 37.5956 28.843C37.6171 28.8053 37.6333 28.7542 37.644 28.6897C37.6602 28.6251 37.6682 28.5821 37.6682 28.5606C37.6682 28.5068 37.6413 28.4799 37.5876 28.4799H36.216C36.173 28.4799 36.1434 28.5068 36.1273 28.5606C36.1219 28.5875 36.1112 28.6332 36.095 28.6977C36.0843 28.7569 36.0789 28.8214 36.0789 28.8914C36.2349 28.8967 36.3451 28.9156 36.4097 28.9478C36.4742 28.9747 36.5065 29.0339 36.5065 29.1253C36.5065 29.1684 36.4984 29.2221 36.4823 29.2867C36.4715 29.3459 36.4527 29.4185 36.4258 29.5045L35.4496 32.9172C35.4442 32.9387 35.4308 32.9495 35.4093 32.9495C35.3878 32.9495 35.3716 32.9387 35.3609 32.9172L34.3121 29.5691C34.2798 29.4669 34.2529 29.3754 34.2314 29.2948C34.2152 29.2141 34.2072 29.1468 34.2072 29.0931C34.2072 29.0124 34.2341 28.9532 34.2878 28.9156C34.3416 28.8725 34.4384 28.8483 34.5783 28.843C34.5944 28.8107 34.6025 28.7677 34.6025 28.7139C34.6079 28.6547 34.6106 28.609 34.6106 28.5767V28.5606V28.5283C34.6159 28.496 34.6025 28.4799 34.5702 28.4799H32.8276C32.7846 28.4799 32.755 28.5068 32.7388 28.5606C32.7173 28.6359 32.7066 28.7462 32.7066 28.8914C32.7872 28.8967 32.8518 28.9021 32.9002 28.9075C32.954 28.9129 33.0051 28.9236 33.0535 28.9398C33.1449 28.972 33.231 29.0473 33.3116 29.1657C33.3923 29.284 33.4676 29.4534 33.5375 29.6739L33.6666 30.0854L32.7388 32.9172C32.7335 32.9387 32.72 32.9495 32.6985 32.9495C32.677 32.9495 32.6609 32.9387 32.6501 32.9172L31.569 29.5691C31.5367 29.4669 31.5098 29.3781 31.4883 29.3028C31.4668 29.2221 31.4561 29.1549 31.4561 29.1011C31.4561 29.0151 31.483 28.9532 31.5367 28.9156C31.5959 28.8725 31.6954 28.8483 31.8353 28.843C31.8568 28.8053 31.8729 28.7542 31.8837 28.6897C31.8998 28.6251 31.9079 28.5821 31.9079 28.5606C31.9079 28.5068 31.881 28.4799 31.8272 28.4799H30.0845C30.0415 28.4799 30.0119 28.5068 29.9958 28.5606C29.9743 28.6359 29.9635 28.7462 29.9635 28.8914C30.0442 28.8967 30.1087 28.9021 30.1572 28.9075C30.2109 28.9129 30.262 28.9236 30.3104 28.9398C30.4933 28.9936 30.6547 29.2383 30.7945 29.6739L32.3032 34.2484H32.5936C32.7119 34.2484 32.7926 34.1758 32.8357 34.0305L33.8925 30.7712ZM39.472 34.0467C39.8108 34.1811 40.1765 34.2484 40.5692 34.2484C41.021 34.2484 41.4351 34.1731 41.8116 34.0225C42.1935 33.8665 42.5216 33.6513 42.7959 33.377C43.0756 33.1027 43.2907 32.7773 43.4413 32.4008C43.5973 32.0243 43.6753 31.6156 43.6753 31.1745C43.6753 30.7712 43.6053 30.4 43.4655 30.0612C43.331 29.717 43.1401 29.4185 42.8927 29.1657C42.6453 28.9129 42.3494 28.7166 42.0052 28.5767C41.6664 28.4315 41.2926 28.3589 40.8838 28.3589C40.4535 28.3589 40.0501 28.4342 39.6736 28.5848C39.2971 28.7354 38.9664 28.9505 38.6813 29.2302C38.4016 29.5045 38.1811 29.8299 38.0198 30.2064C37.8638 30.5775 37.7858 30.9863 37.7858 31.4327C37.7858 31.8415 37.8557 32.218 37.9955 32.5622C38.1408 32.9064 38.3398 33.2049 38.5926 33.4577C38.8454 33.7105 39.1385 33.9068 39.472 34.0467ZM41.8681 33.4577C41.5561 33.6567 41.1931 33.7562 40.7789 33.7562C40.3702 33.7562 40.0017 33.6487 39.6736 33.4335C39.3456 33.2184 39.0847 32.9199 38.8911 32.538C38.7028 32.1561 38.6087 31.7124 38.6087 31.2068C38.6087 30.7496 38.7001 30.3436 38.883 29.9886C39.0659 29.6336 39.3106 29.3566 39.6172 29.1576C39.9291 28.9532 40.2787 28.851 40.666 28.851C41.107 28.851 41.4916 28.9613 41.8197 29.1818C42.1478 29.3969 42.4005 29.6955 42.578 30.0773C42.7609 30.4592 42.8523 30.9002 42.8523 31.4004C42.8523 31.863 42.7663 32.2718 42.5942 32.6267C42.4221 32.9817 42.18 33.2587 41.8681 33.4577ZM44.1962 34.0467C44.1962 34.1005 44.2231 34.1273 44.2769 34.1273H46.0114C46.0545 34.1273 46.084 34.1005 46.1002 34.0467C46.1217 33.9714 46.1325 33.8611 46.1325 33.7159H45.9388C45.8689 33.7105 45.8124 33.7051 45.7694 33.6998C45.6887 33.689 45.6376 33.6487 45.6161 33.5787C45.5946 33.5088 45.5838 33.3555 45.5838 33.1189V31.7393C45.6645 31.7447 45.7452 31.7474 45.8259 31.7474C46.0249 31.7474 46.2212 31.7339 46.4148 31.707L47.6008 33.5949C47.7783 33.853 47.9289 34.0252 48.0526 34.1112C48.1763 34.1973 48.3242 34.2403 48.4963 34.2403C48.6953 34.2403 48.8889 34.2026 49.0772 34.1273C49.1041 34.0897 49.1256 34.0305 49.1417 33.9499C49.1632 33.8638 49.1686 33.7885 49.1579 33.724C49.0234 33.724 48.897 33.6971 48.7787 33.6433C48.6657 33.5895 48.5393 33.4873 48.3995 33.3367C48.2597 33.1807 48.0902 32.9575 47.8912 32.6671C47.6922 32.3766 47.4394 31.9975 47.1329 31.5295C47.504 31.3843 47.8052 31.1772 48.0364 30.9083C48.2731 30.6394 48.3914 30.3113 48.3914 29.924C48.3914 29.4615 48.2139 29.1065 47.859 28.8591C47.504 28.6063 47.0065 28.4799 46.3664 28.4799H44.414C44.371 28.4799 44.3414 28.5068 44.3253 28.5606C44.3199 28.5875 44.3118 28.6332 44.3011 28.6977C44.2903 28.7569 44.2849 28.8214 44.2849 28.8914C44.4409 28.8914 44.5539 28.9021 44.6238 28.9236C44.6991 28.9398 44.7475 28.9855 44.769 29.0608C44.7905 29.1361 44.8013 29.2652 44.8013 29.448V33.1189C44.8013 33.3394 44.7609 33.5007 44.6803 33.6029C44.605 33.6998 44.4678 33.7535 44.2688 33.7643C44.2473 33.8019 44.2285 33.853 44.2123 33.9176C44.2016 33.9821 44.1962 34.0252 44.1962 34.0467ZM46.1567 31.2875C45.9738 31.2875 45.7828 31.2687 45.5838 31.231V29.448C45.5838 29.2974 45.5973 29.1791 45.6242 29.0931C45.6511 29.007 45.7076 28.9532 45.7936 28.9317C45.9281 28.9048 46.0894 28.8914 46.2777 28.8914C46.6972 28.8914 47.0199 28.9882 47.2458 29.1818C47.4717 29.3701 47.5846 29.6444 47.5846 30.0047C47.5846 30.4296 47.469 30.7496 47.2377 30.9648C47.0118 31.1799 46.6515 31.2875 46.1567 31.2875ZM49.4374 34.1273L53.1647 34.1354C53.2884 34.1354 53.3637 34.0709 53.3906 33.9418L53.5923 32.8123C53.56 32.7962 53.5143 32.7827 53.4551 32.772C53.396 32.7558 53.353 32.7478 53.3261 32.7478C53.2723 32.7478 53.2319 32.7773 53.205 32.8365L53.0437 33.2399C52.9953 33.3582 52.9307 33.4497 52.8501 33.5142C52.7748 33.5787 52.6591 33.6137 52.5031 33.6191L51.1397 33.6513C51.0052 33.6567 50.9057 33.6298 50.8412 33.5707C50.7766 33.5115 50.7444 33.3609 50.7444 33.1189V29.448C50.7444 29.2275 50.7847 29.0742 50.8654 28.9882C50.9461 28.8967 51.1047 28.8483 51.3414 28.843C51.3629 28.8053 51.379 28.7542 51.3898 28.6897C51.4059 28.6251 51.414 28.5821 51.414 28.5606C51.414 28.5068 51.3871 28.4799 51.3333 28.4799H49.5746C49.5315 28.4799 49.5019 28.5068 49.4858 28.5606C49.4804 28.5875 49.4724 28.6332 49.4616 28.6977C49.4508 28.7569 49.4455 28.8214 49.4455 28.8914C49.6014 28.8914 49.7144 28.9021 49.7843 28.9236C49.8596 28.9398 49.908 28.9855 49.9295 29.0608C49.951 29.1361 49.9618 29.2652 49.9618 29.448V33.1189C49.9618 33.3394 49.9215 33.4981 49.8408 33.5949C49.7655 33.6917 49.6283 33.7482 49.4293 33.7643C49.4078 33.8019 49.389 33.853 49.3729 33.9176C49.3621 33.9821 49.3567 34.0252 49.3567 34.0467C49.3567 34.1005 49.3836 34.1273 49.4374 34.1273ZM53.974 33.9176C53.9632 33.9821 53.9579 34.0278 53.9579 34.0547C53.9579 34.1031 53.9848 34.1273 54.0385 34.1273H55.6682C56.4427 34.1435 57.0989 34.0305 57.6368 33.7885C58.1746 33.5411 58.5834 33.1915 58.8631 32.7397C59.1427 32.2879 59.2826 31.7635 59.2826 31.1665C59.2826 30.2736 59.0029 29.604 58.4435 29.1576C57.8842 28.7058 57.0855 28.4799 56.0474 28.4799H54.1757C54.1703 28.4799 54.1569 28.4826 54.1354 28.488C54.1138 28.4934 54.0977 28.5176 54.0869 28.5606C54.0816 28.5875 54.0735 28.6332 54.0627 28.6977C54.052 28.7569 54.0466 28.8214 54.0466 28.8914C54.2026 28.8914 54.3155 28.9021 54.3855 28.9236C54.4608 28.9398 54.5092 28.9882 54.5307 29.0689C54.5522 29.1442 54.5629 29.2706 54.5629 29.448V33.1189C54.5629 33.3394 54.5226 33.5007 54.4419 33.6029C54.3666 33.6998 54.2295 33.7535 54.0305 33.7643C54.009 33.8019 53.9901 33.853 53.974 33.9176ZM55.3697 33.4335C55.3536 33.3528 55.3455 33.248 55.3455 33.1189V29.448C55.3455 29.2652 55.3805 29.1361 55.4504 29.0608C55.5203 28.9855 55.6333 28.9478 55.7892 28.9478H56.12C56.588 28.9478 56.9967 29.0178 57.3463 29.1576C57.7013 29.2974 57.9783 29.5287 58.1773 29.8514C58.3763 30.1741 58.4758 30.6098 58.4758 31.1584C58.4758 31.7178 58.3709 32.183 58.1612 32.5541C57.9568 32.9253 57.6663 33.2022 57.2898 33.3851C56.9134 33.568 56.475 33.6594 55.9748 33.6594C55.765 33.6594 55.6171 33.6433 55.5311 33.611C55.445 33.5734 55.3912 33.5142 55.3697 33.4335Z" fill="#F3AC3C"/>
</svg>
