<svg width="14" height="14" viewBox="0 0 14 14" fill="none" xmlns="http://www.w3.org/2000/svg">
<path id="Union" fill-rule="evenodd" clip-rule="evenodd" d="M9 5C9 7.20914 7.20914 9 5 9C2.79086 9 1 7.20914 1 5C1 2.79086 2.79086 1 5 1C7.20914 1 9 2.79086 9 5ZM8.16437 8.87147C7.30243 9.57682 6.20063 10 5 10C2.23858 10 0 7.76142 0 5C0 2.23858 2.23858 0 5 0C7.76142 0 10 2.23858 10 5C10 6.20063 9.57682 7.30243 8.87147 8.16437L13.3536 12.6464C13.5488 12.8417 13.5488 13.1583 13.3536 13.3536C13.1583 13.5488 12.8417 13.5488 12.6464 13.3536L8.16437 8.87147Z" fill="#F6E74E"/>
</svg>
