<svg width="38" height="38" viewBox="0 0 38 38" fill="none" xmlns="http://www.w3.org/2000/svg">
<g id="socials">
<rect id="Rectangle 1" width="37.1683" height="37.1683" rx="18.5842" fill="#82B63C"/>
<path id="Vector" d="M25.9498 11.2085C24.1141 9.37911 21.6664 8.36279 19.0828 8.36279C13.7115 8.36279 9.36007 12.6991 9.36007 18.0517C9.36007 19.7456 9.83601 21.4395 10.6519 22.8623L9.29208 27.8762L14.4594 26.5211C15.8872 27.2664 17.451 27.6729 19.0828 27.6729C24.454 27.6729 28.8055 23.3366 28.8055 17.984C28.7375 15.477 27.7856 13.0379 25.9498 11.2085ZM23.7741 21.5072C23.5702 22.0493 22.6183 22.5913 22.1424 22.659C21.7344 22.7268 21.1905 22.7268 20.6466 22.5913C20.3066 22.4558 19.8307 22.3203 19.2867 22.0493C16.8391 21.0329 15.2753 18.5938 15.1393 18.3905C15.0033 18.255 14.1194 17.1032 14.1194 15.8836C14.1194 14.664 14.7314 14.1219 14.9353 13.8509C15.1393 13.5799 15.4113 13.5799 15.6152 13.5799C15.7512 13.5799 15.9552 13.5799 16.0912 13.5799C16.2271 13.5799 16.4311 13.5122 16.6351 13.9864C16.8391 14.4607 17.315 15.6803 17.383 15.7481C17.451 15.8836 17.451 16.0191 17.383 16.1546C17.315 16.2901 17.247 16.4256 17.111 16.5611C16.975 16.6966 16.8391 16.8999 16.7711 16.9676C16.6351 17.1032 16.4991 17.2387 16.6351 17.4419C16.7711 17.713 17.247 18.4583 17.9949 19.1358C18.9468 19.9489 19.6947 20.2199 19.9666 20.3554C20.2386 20.4909 20.3746 20.4231 20.5106 20.2876C20.6466 20.1521 21.1225 19.6101 21.2585 19.3391C21.3945 19.068 21.5984 19.1358 21.8024 19.2036C22.0064 19.2713 23.2302 19.8811 23.4342 20.0166C23.7061 20.1521 23.8421 20.2199 23.9101 20.2876C23.9781 20.4909 23.9781 20.9652 23.7741 21.5072Z" fill="white"/>
</g>
</svg>
