<svg width="10" height="9" viewBox="0 0 10 9" fill="none" xmlns="http://www.w3.org/2000/svg">
<path id="Star 3" d="M3.97259 2.26691C4.29363 1.46657 4.45415 1.0664 4.71494 1.01094C4.78351 0.996354 4.85438 0.996354 4.92295 1.01094C5.18374 1.0664 5.34426 1.46657 5.6653 2.26691C5.84787 2.72205 5.93915 2.94962 6.10996 3.10441C6.15787 3.14782 6.20987 3.18649 6.26525 3.21986C6.46267 3.33885 6.70911 3.36092 7.202 3.40507C8.03639 3.47979 8.45358 3.51715 8.58098 3.75502C8.60736 3.80429 8.6253 3.85763 8.63405 3.91283C8.67629 4.17934 8.36959 4.45837 7.75619 5.01643L7.58586 5.1714C7.29909 5.4323 7.1557 5.56276 7.07276 5.72556C7.02301 5.82322 6.98965 5.92839 6.97402 6.03687C6.94797 6.21771 6.98995 6.40696 7.07393 6.78545L7.10394 6.92068C7.25453 7.59945 7.32983 7.93883 7.23584 8.10565C7.1514 8.2555 6.99588 8.35143 6.82408 8.35963C6.63282 8.36877 6.36333 8.14917 5.82434 7.70997C5.46923 7.42061 5.29168 7.27593 5.09458 7.21942C4.91445 7.16777 4.72344 7.16777 4.54332 7.21942C4.34621 7.27593 4.16866 7.42061 3.81355 7.70997C3.27457 8.14917 3.00507 8.36877 2.81381 8.35963C2.64201 8.35143 2.48649 8.2555 2.40206 8.10565C2.30806 7.93883 2.38336 7.59945 2.53396 6.92069L2.56396 6.78545C2.64794 6.40696 2.68993 6.21771 2.66387 6.03687C2.64824 5.92839 2.61488 5.82322 2.56513 5.72556C2.48219 5.56276 2.33881 5.4323 2.05204 5.1714L1.8817 5.01643C1.2683 4.45837 0.961607 4.17934 1.00384 3.91283C1.01259 3.85763 1.03053 3.80429 1.05692 3.75502C1.18432 3.51715 1.60151 3.47979 2.43589 3.40507C2.92878 3.36092 3.17523 3.33885 3.37265 3.21986C3.42802 3.18649 3.48003 3.14782 3.52794 3.10441C3.69874 2.94962 3.79003 2.72205 3.97259 2.26691Z" fill="#F3B840" stroke="#F3B840"/>
</svg>
