<svg width="39" height="39" viewBox="0 0 39 39" fill="none" xmlns="http://www.w3.org/2000/svg">
<g id="socials">
<rect id="Rectangle 1" x="0.161255" y="0.312012" width="38.6667" height="38.6667" rx="19.3334" fill="#6F65EB"/>
<path id="Vector" d="M25.5401 9.53992C21.8556 8.8363 18.0294 8.8363 14.345 9.53992C12.7153 9.89174 10.6605 11.8619 10.3062 13.4099C9.66852 16.4354 9.66852 19.5314 10.3062 22.5569C10.7313 24.1049 12.7861 26.0751 14.345 26.4269C14.4158 26.4269 14.4867 26.4972 14.4867 26.5676V31.0004C14.4867 31.2115 14.7701 31.3522 14.9118 31.1411L17.0375 28.9599C17.0375 28.9599 18.738 27.2009 19.0214 26.9194C19.0214 26.9194 19.0923 26.849 19.1631 26.849C21.2888 26.9194 23.4853 26.7083 25.6109 26.3565C27.2406 26.0047 29.2954 24.0346 29.6497 22.4866C30.2874 19.461 30.2874 16.3651 29.6497 13.3395C29.2246 11.8619 27.1698 9.89174 25.5401 9.53992ZM25.6109 22.768C25.2567 23.4717 24.8315 24.0346 24.123 24.3864C23.9104 24.4567 23.6979 24.5271 23.4853 24.5975C23.2019 24.5271 22.9893 24.4567 22.7767 24.3864C20.5094 23.4717 18.3837 22.2051 16.6832 20.3757C15.7621 19.3203 14.9827 18.1241 14.345 16.8576C14.0615 16.2243 13.7781 15.6614 13.5656 15.0282C13.353 14.4653 13.7073 13.9024 14.0615 13.4802C14.4158 13.058 14.8409 12.7766 15.3369 12.5655C15.6912 12.3544 16.0455 12.4951 16.3289 12.7766C16.8958 13.4802 17.4626 14.1838 17.8877 14.9578C18.1711 15.4504 18.1003 16.0133 17.6043 16.3651C17.4626 16.4354 17.3917 16.5058 17.25 16.6465C17.1792 16.7169 17.0375 16.7872 16.9666 16.928C16.8249 17.1391 16.8249 17.3501 16.8957 17.5612C17.4626 19.1796 18.5254 20.4461 20.1551 21.1497C20.4385 21.2904 20.6511 21.3608 21.0054 21.3608C21.5013 21.2904 21.7139 20.7275 22.0682 20.4461C22.4225 20.1646 22.8476 20.1646 23.2727 20.3757C23.627 20.5868 23.9813 20.8683 24.4064 21.1497C24.7607 21.4312 25.115 21.6422 25.4692 21.9237C25.6818 22.0644 25.7527 22.4162 25.6109 22.768ZM22.635 17.4909C22.4933 17.4909 22.5642 17.4909 22.635 17.4909C22.3516 17.4909 22.2807 17.3501 22.2099 17.1391C22.2099 16.9983 22.2099 16.7872 22.139 16.6465C22.0682 16.3651 21.9265 16.0836 21.6431 15.8725C21.5013 15.8022 21.3596 15.7318 21.2179 15.6614C21.0054 15.5911 20.8636 15.5911 20.6511 15.5911C20.4385 15.5207 20.3677 15.38 20.3677 15.1689C20.3677 15.0282 20.5802 14.8875 20.7219 14.8875C21.8556 14.9578 22.7059 15.5911 22.8476 16.928C22.8476 16.9983 22.8476 17.1391 22.8476 17.2094C22.8476 17.3501 22.7767 17.4909 22.635 17.4909ZM21.9265 14.3949C21.5722 14.2542 21.2179 14.1135 20.7928 14.0431C20.6511 14.0431 20.4385 13.9727 20.2968 13.9727C20.0842 13.9727 19.9425 13.832 20.0134 13.6209C20.0134 13.4098 20.1551 13.2691 20.3677 13.3395C21.0762 13.4099 21.7139 13.5506 22.3516 13.832C23.627 14.4653 24.3356 15.5207 24.5481 16.928C24.5481 16.9983 24.5481 17.0687 24.5481 17.1391C24.5481 17.2798 24.5481 17.4205 24.5481 17.6316C24.5481 17.7019 24.5481 17.7723 24.5481 17.8427C24.4773 18.1241 23.9813 18.1945 23.9104 17.8427C23.9104 17.7723 23.8396 17.6316 23.8396 17.5612C23.8396 16.928 23.6979 16.2947 23.4144 15.7318C22.9893 15.0985 22.4933 14.6764 21.9265 14.3949ZM25.7527 18.6167C25.5401 18.6167 25.3984 18.4056 25.3984 18.1945C25.3984 17.7723 25.3275 17.3501 25.2567 16.928C24.9732 14.6764 23.131 12.847 20.9345 12.4951C20.5802 12.4248 20.2259 12.4248 19.9425 12.3544C19.73 12.3544 19.4465 12.3544 19.3757 12.073C19.3048 11.8619 19.5174 11.6508 19.73 11.6508C19.8008 11.6508 19.8717 11.6508 19.8717 11.6508C20.0134 11.6508 22.7767 11.7212 19.8717 11.6508C22.8476 11.7212 25.3275 13.6913 25.8235 16.6465C25.8944 17.1391 25.9652 17.6316 25.9652 18.1945C26.1069 18.4056 25.9652 18.6167 25.7527 18.6167Z" fill="white"/>
</g>
</svg>
