<svg width="37" height="36" viewBox="0 0 37 36" fill="none" xmlns="http://www.w3.org/2000/svg">
<g id="Group 1" filter="url(#filter0_d_15_20)">
<path id="Union" fill-rule="evenodd" clip-rule="evenodd" d="M9 1.5C9 1.22386 9.22386 1 9.5 1H21.5V5.5C21.5 6.32843 22.1716 7 23 7H27.5V13.5472L22.1771 18.6387C22.0746 18.7367 22.0226 18.8684 22.0227 19.0005C21.9798 18.9986 21.9363 19.0021 21.8932 19.0115C21.7135 19.0508 21.5698 19.1857 21.5192 19.3626L20.6229 22.5H12C11.7239 22.5 11.5 22.7239 11.5 23C11.5 23.2761 11.7239 23.5 12 23.5H21H24H25C25.1953 23.5 25.3727 23.3863 25.4543 23.2089C25.4851 23.1419 25.5001 23.0705 25.5 22.9995C25.5013 22.9995 25.5025 22.9996 25.5038 22.9996C25.6431 23.0049 25.7782 22.9518 25.8766 22.8532L27.5 21.2265V26.5C27.5 26.7761 27.2761 27 27 27H9.5C9.22386 27 9 26.7761 9 26.5V1.5ZM28.5 20.2244V26.5C28.5 27.3284 27.8284 28 27 28H9.5C8.67157 28 8 27.3284 8 26.5V1.5C8 0.671573 8.67157 0 9.5 0H22H22.0601C22.4806 0 22.8817 0.17647 23.1658 0.486413L28.1057 5.8754C28.3593 6.15204 28.5 6.51369 28.5 6.88898V12.5907L31.7409 9.49075C32.723 8.55133 34.2757 8.56857 35.2367 9.52958L35.4408 9.73369C36.4164 10.7093 36.4172 12.2908 35.4426 13.2674L28.5 20.2244ZM28.5 13.9745L32.4321 10.2134C33.0214 9.64974 33.953 9.66009 34.5296 10.2367L34.7337 10.4408C35.3191 11.0262 35.3195 11.9751 34.7348 12.561L28.5 18.8087V13.9745ZM27.5 14.931V19.8108L25.5506 21.7642L23.2105 19.0341L27.5 14.931ZM26.8634 6L22.5 1.23995V5.5C22.5 5.77614 22.7239 6 23 6H26.8634ZM11.5 5.5C11.5 5.22386 11.7239 5 12 5H18.5C18.7761 5 19 5.22386 19 5.5C19 5.77614 18.7761 6 18.5 6H12C11.7239 6 11.5 5.77614 11.5 5.5ZM11.5 19C11.5 18.7239 11.7239 18.5 12 18.5H18.5C18.7761 18.5 19 18.7239 19 19C19 19.2761 18.7761 19.5 18.5 19.5H12C11.7239 19.5 11.5 19.2761 11.5 19ZM12 9C11.7239 9 11.5 9.22386 11.5 9.5C11.5 9.77614 11.7239 10 12 10H24C24.2761 10 24.5 9.77614 24.5 9.5C24.5 9.22386 24.2761 9 24 9H12ZM11.5 14C11.5 13.7239 11.7239 13.5 12 13.5H24C24.2761 13.5 24.5 13.7239 24.5 14C24.5 14.2761 24.2761 14.5 24 14.5H12C11.7239 14.5 11.5 14.2761 11.5 14ZM22.2254 20.5312L23.9129 22.5H21.6629L22.2254 20.5312Z" fill="url(#paint0_linear_15_20)"/>
</g>
<defs>
<filter id="filter0_d_15_20" x="0" y="0" width="36.173" height="36" filterUnits="userSpaceOnUse" color-interpolation-filters="sRGB">
<feFlood flood-opacity="0" result="BackgroundImageFix"/>
<feColorMatrix in="SourceAlpha" type="matrix" values="0 0 0 0 0 0 0 0 0 0 0 0 0 0 0 0 0 0 127 0" result="hardAlpha"/>
<feOffset dx="-4" dy="4"/>
<feGaussianBlur stdDeviation="2"/>
<feComposite in2="hardAlpha" operator="out"/>
<feColorMatrix type="matrix" values="0 0 0 0 0.960784 0 0 0 0 0.729412 0 0 0 0 0.254902 0 0 0 1 0"/>
<feBlend mode="normal" in2="BackgroundImageFix" result="effect1_dropShadow_15_20"/>
<feBlend mode="normal" in="SourceGraphic" in2="effect1_dropShadow_15_20" result="shape"/>
</filter>
<linearGradient id="paint0_linear_15_20" x1="6.5" y1="30" x2="29.5" y2="3.5" gradientUnits="userSpaceOnUse">
<stop stop-color="#C5533A"/>
<stop offset="1" stop-color="#F6DD74"/>
</linearGradient>
</defs>
</svg>
