<svg width="40" height="39" viewBox="0 0 40 39" fill="none" xmlns="http://www.w3.org/2000/svg">
<g id="socials">
<rect id="Rectangle 1" x="0.849487" y="0.312012" width="38.6667" height="38.6667" rx="19.3334" fill="#48C95F"/>
<path id="Vector" d="M27.8455 11.9726C25.9357 10.0695 23.3894 9.01221 20.7016 9.01221C15.1137 9.01221 10.5869 13.5233 10.5869 19.0917C10.5869 20.8539 11.082 22.616 11.9308 24.0963L10.5162 29.3122L15.8918 27.9025C17.3772 28.6779 19.004 29.1008 20.7016 29.1008C26.2894 29.1008 30.8162 24.5897 30.8162 19.0212C30.7455 16.4133 29.7552 13.8758 27.8455 11.9726ZM25.582 22.6865C25.3698 23.2504 24.3796 23.8143 23.8845 23.8848C23.4601 23.9553 22.8942 23.9553 22.3284 23.8143C21.9747 23.6733 21.4796 23.5324 20.9137 23.2504C18.3674 22.1931 16.7406 19.6556 16.5991 19.4442C16.4576 19.3032 15.5381 18.1049 15.5381 16.8362C15.5381 15.5674 16.1747 15.0035 16.3869 14.7216C16.5991 14.4396 16.882 14.4396 17.0942 14.4396C17.2357 14.4396 17.4479 14.4396 17.5894 14.4396C17.7308 14.4396 17.943 14.3692 18.1552 14.8626C18.3674 15.356 18.8625 16.6247 18.9333 16.6952C19.004 16.8362 19.004 16.9771 18.9333 17.1181C18.8625 17.2591 18.7918 17.4001 18.6503 17.541C18.5089 17.682 18.3674 17.8935 18.2967 17.964C18.1552 18.1049 18.0137 18.2459 18.1552 18.4574C18.2967 18.7393 18.7918 19.5146 19.5698 20.2195C20.5601 21.0653 21.3381 21.3473 21.6211 21.4883C21.904 21.6292 22.0455 21.5587 22.1869 21.4178C22.3284 21.2768 22.8235 20.7129 22.965 20.431C23.1064 20.149 23.3186 20.2195 23.5308 20.29C23.743 20.3605 25.0162 20.9949 25.2284 21.1358C25.5113 21.2768 25.6528 21.3473 25.7235 21.4178C25.7942 21.6292 25.7942 22.1226 25.582 22.6865Z" fill="white"/>
</g>
</svg>
